HIERARCHY
ROOT root
{
	OFFSET	0	13.1	24.9
	CHANNELS 6  Xposition Yposition Zposition Xrotation Yrotation Zrotation
	JOINT spine_1
	{
		OFFSET	0	9.99999	0
		CHANNELS 3  Xrotation Yrotation Zrotation
		JOINT spine_2
		{
			OFFSET	0	112	-10
			CHANNELS 3  Xrotation Yrotation Zrotation
			JOINT spine_3
			{
				OFFSET	0	206.5	19.3
				CHANNELS 3  Xrotation Yrotation Zrotation
				JOINT spine_4
				{
					OFFSET	0	110.4	14.6
					CHANNELS 3  Xrotation Yrotation Zrotation
					JOINT neck_1
					{
						OFFSET	0	71.8	-50.3
						CHANNELS 3  Xrotation Yrotation Zrotation
						JOINT neck_2
						{
							OFFSET	0	86.2	-25.8
							CHANNELS 3  Xrotation Yrotation Zrotation
							JOINT head_ee
							{
								OFFSET	0	179.8	-8.7
								CHANNELS 3  Xrotation Yrotation Zrotation
								End Site
								{
									OFFSET	1	0	0
								}
							}
						}
					}
					JOINT left_clavicle
					{
						OFFSET	-43.2	22.4	-70.8
						CHANNELS 3  Xrotation Yrotation Zrotation
						JOINT left_shoulder
						{
							OFFSET	-93.9	-5.79999	48.7
							CHANNELS 3  Xrotation Yrotation Zrotation
							JOINT left_elbow
							{
								OFFSET	-291.4	-30.8	15.2
								CHANNELS 3  Xrotation Yrotation Zrotation
								JOINT left_lowarm_twist
								{
									OFFSET	-110.7	-3.89999	13.6
									CHANNELS 3  Xrotation Yrotation Zrotation
									JOINT left_hand
									{
										OFFSET	-110.7	-3.89999	13.6
										CHANNELS 3  Xrotation Yrotation Zrotation
										JOINT left_ee
										{
											OFFSET	-80.8	-5.10001	12.1
											CHANNELS 3  Xrotation Yrotation Zrotation
											End Site
											{
												OFFSET	1	0	0
											}
										}
									}
								}
							}
						}
					}
					JOINT right_clavicle
					{
						OFFSET	43.2	22.4	-70.8
						CHANNELS 3  Xrotation Yrotation Zrotation
						JOINT right_shoulder
						{
							OFFSET	93.9	-5.79999	48.7
							CHANNELS 3  Xrotation Yrotation Zrotation
							JOINT right_elbow
							{
								OFFSET	291.4	-30.8	15.2
								CHANNELS 3  Xrotation Yrotation Zrotation
								JOINT right_lowarm_twist
								{
									OFFSET	110.7	-3.89999	13.6
									CHANNELS 3  Xrotation Yrotation Zrotation
									JOINT right_hand
									{
										OFFSET	110.7	-3.89999	13.6
										CHANNELS 3  Xrotation Yrotation Zrotation
										JOINT right_ee
										{
											OFFSET	80.8	-5.10001	12.1
											CHANNELS 3  Xrotation Yrotation Zrotation
											End Site
											{
												OFFSET	1	0	0
											}
										}
									}
								}
							}
						}
					}
				}
			}
		}
	}
	JOINT left_hip
	{
		OFFSET	-82.8	-127.5	0.300001
		CHANNELS 3  Xrotation Yrotation Zrotation
		JOINT left_knee
		{
			OFFSET	-28.2	-396.7	2.2
			CHANNELS 3  Xrotation Yrotation Zrotation
			JOINT left_ankle
			{
				OFFSET	-11.7	-411.3	35.4
				CHANNELS 3  Xrotation Yrotation Zrotation
				JOINT left_toes
				{
					OFFSET	0	-60	-88.6
					CHANNELS 3  Xrotation Yrotation Zrotation
					JOINT left_foot_ee
					{
						OFFSET	-22.5	-16.5	-42.2
						CHANNELS 3  Xrotation Yrotation Zrotation
						End Site
						{
							OFFSET	1	0	0
						}
					}
				}
			}
		}
	}
	JOINT right_hip
	{
		OFFSET	82.8	-127.5	0.300001
		CHANNELS 3  Xrotation Yrotation Zrotation
		JOINT right_knee
		{
			OFFSET	28.2	-396.7	2.2
			CHANNELS 3  Xrotation Yrotation Zrotation
			JOINT right_ankle
			{
				OFFSET	11.7	-411.3	35.4
				CHANNELS 3  Xrotation Yrotation Zrotation
				JOINT right_toes
				{
					OFFSET	0	-60	-88.6
					CHANNELS 3  Xrotation Yrotation Zrotation
					JOINT right_foot_ee
					{
						OFFSET	22.5	-16.5	-42.2
						CHANNELS 3  Xrotation Yrotation Zrotation
						End Site
						{
							OFFSET	1	0	0
						}
					}
				}
			}
		}
	}
}
MOTION
Frames: 9
Frame Time: 0.02
441.857 736.526 -574.236 179.517 -65.6723 178.743 -0.351822 0.514848 -0.119733 -0.351965 0.521424 -0.0867287 -0.352857 0.527842 0.0280527 -0.352473 0.525648 -0.0556646 -6.93426 13.633 6.21907 -6.8462 20.8748 8.94954 -0.0 0.0 -0.0 0.758899 24.8833 3.87503 -2.38725 -12.0616 71.3927 1.68071 -39.7767 0.608062 10.3121 0.247617 -1.29223 1.0322 -1.90327 6.13153 -0.0 0.0 -0.0 8.76525 20.0002 -16.6557 -11.1161 27.8478 -62.2235 0.397426 11.1378 -0.0387502 6.39787 -0.181083 0.796758 1.33031 -29.02 -18.8097 0.0 0.0 0.0 -5.25007 24.0662 3.64478 -0.578332 0.0233811 0.0856714 24.1024 20.4421 -3.32003 -6.52645 0.0 0.0 -0.0 0.0 -0.0 19.3789 38.9917 -11.0415 -31.867 0.0319624 -4.82786 37.9521 3.57806 4.73127 -29.9105 0.0 0.0 0.0 0.0 0.0 
446.053 736.507 -568.574 -179.692 -66.1384 179.675 -0.268911 0.626946 -0.17384 -0.26912 0.636737 -0.133592 -0.27076 0.650569 0.0062991 -0.270182 0.643399 -0.0965295 -6.33819 13.7248 6.14297 -6.22796 20.9718 8.79947 -0.0 0.0 -0.0 0.637384 24.3142 3.66306 -3.77495 -12.5444 71.0429 1.57346 -37.9317 0.540767 10.299 0.247452 -1.29057 1.02599 -1.44682 6.27739 -0.0 0.0 -0.0 9.20627 21.8828 -17.4842 -10.8407 28.0745 -61.6231 0.41319 11.5678 -0.0418533 6.44409 -0.182066 0.802581 1.29886 -28.7407 -18.5549 0.0 0.0 0.0 -4.829 23.7007 3.39869 -0.163431 0.00669503 0.0241865 24.012 20.5577 -3.31061 -6.81837 0.0 0.0 -0.0 0.0 -0.0 19.9333 39.9385 -12.4204 -32.332 0.0522962 -4.8963 38.7102 4.32186 4.80909 -29.7113 0.0 0.0 0.0 0.0 0.0 
452.071 738.939 -567.13 179.319 -67.0386 178.775 -0.224333 0.719768 -0.0428903 -0.224622 0.721038 0.00299969 -0.224727 0.703693 0.157235 -0.224039 0.719693 0.0441209 -8.23446 10.7435 5.24819 -8.20436 16.4062 7.55986 -0.0 0.0 -0.0 0.868056 23.6455 3.91758 -4.9433 -11.9607 71.29 1.31112 -33.0017 0.388407 10.8821 0.254476 -1.36471 0.455822 0.945922 3.43636 -0.0 0.0 -0.0 9.62343 25.775 -18.0465 -9.73872 27.9116 -61.4831 0.369151 10.3632 -0.0334758 7.88135 -0.210283 0.984004 1.49945 -28.6391 -19.6895 0.0 0.0 0.0 -4.73337 22.9908 3.09472 -1.38678 0.054612 0.20581 22.6441 21.9081 -3.16068 -6.92695 0.0 0.0 -0.0 0.0 -0.0 18.1177 33.7155 -10.7223 -33.0338 0.0840422 -4.99931 38.4276 0.465217 4.74171 -29.1183 0.0 0.0 0.0 0.0 0.0 
458.766 740.243 -565.072 176.656 -67.9461 175.995 -0.372028 0.729538 0.130248 -0.372307 0.719771 0.176408 -0.370168 0.664522 0.328031 -0.369618 0.707988 0.218961 -9.72718 9.38401 5.00354 -9.72196 14.2572 7.1786 -0.0 0.0 -0.0 0.743162 23.3846 3.72448 -6.01895 -12.7075 71.1909 1.19247 -30.5698 0.325897 10.9042 0.254728 -1.36753 0.321063 1.7099 2.85372 -0.0 0.0 -0.0 10.0732 27.9907 -18.8037 -8.25126 28.1045 -60.607 0.337679 9.4965 -0.0280487 8.83439 -0.22648 1.10467 1.50427 -28.4083 -19.6587 0.0 0.0 0.0 -3.83146 22.3997 2.87126 -4.36458 0.154936 0.651752 24.6526 22.7516 -3.42338 -7.13109 0.0 0.0 -0.0 0.0 -0.0 15.6722 33.9016 -10.1326 -33.2325 0.0932581 -5.0284 38.6303 0.64287 4.76124 -29.1372 0.0 0.0 0.0 0.0 0.0 
466.254 739.834 -563.672 174.309 -69.8528 173.218 -0.277318 0.800943 0.260756 -0.277621 0.782728 0.311197 -0.273388 0.697617 0.472061 -0.272885 0.763414 0.355957 -9.07405 7.97386 1.48594 -9.11269 13.934 3.33656 -0.0 0.0 -0.0 0.771057 23.8177 3.80012 -7.60591 -13.0157 70.9831 1.09544 -28.4856 0.278067 11.079 0.256678 -1.38977 -0.0977037 2.24295 0.294204 -0.0 0.0 -0.0 10.0134 29.0033 -18.5479 -6.57905 28.6235 -59.8083 0.300411 8.46452 -0.0222309 9.5611 -0.237479 1.19684 1.53864 -28.4724 -19.8756 0.0 0.0 0.0 -3.76878 19.1104 3.29742 -7.62225 0.23797 1.14472 28.6113 22.3275 -3.88835 -5.73703 0.0 0.0 -0.0 0.0 -0.0 12.7686 28.1983 -7.64449 -33.7461 0.117549 -5.10346 39.5853 -1.43592 4.83108 -28.4404 0.0 0.0 0.0 0.0 0.0 
474.786 739.46 -563.453 172.683 -71.8104 171.693 -0.537971 0.673209 0.485011 -0.538068 0.640983 0.526866 -0.532026 0.50991 0.654552 -0.532111 0.606884 0.565809 -11.0524 7.16403 1.60808 -11.1135 12.4839 3.46864 -0.0 0.0 -0.0 0.686438 24.0908 3.70929 -8.68647 -13.487 70.6502 1.02557 -26.9316 0.245576 11.3626 0.259698 -1.42587 -0.386149 3.01791 -1.2884 -0.0 0.0 -0.0 10.0061 29.171 -18.511 -6.5286 28.884 -57.5412 0.320479 9.02096 -0.0252813 10.0374 -0.244054 1.25732 1.54679 -28.5497 -19.9428 0.0 0.0 0.0 -3.19824 15.6866 3.05975 -10.3444 0.285768 1.55966 31.4209 19.6398 -4.15481 -5.28588 0.0 0.0 -0.0 0.0 -0.0 11.1229 26.366 -6.85228 -33.6157 0.111319 -5.08442 40.2396 -3.6662 4.87966 -28.342 0.0 0.0 0.0 0.0 0.0 
483.96 747.299 -558.538 167.209 -72.892 166.043 -0.678244 0.61234 0.621448 -0.67821 0.571555 0.659153 -0.671379 0.411305 0.769404 -0.671817 0.527653 0.694794 -11.9639 7.53181 3.19243 -12.0156 12.2294 5.18729 -0.0 0.0 -0.0 0.412688 23.8946 3.32077 -8.9941 -13.68 70.2423 0.883006 -23.625 0.184674 11.2422 0.258438 -1.41054 -0.531408 6.95961 -0.558603 -0.0 0.0 -0.0 9.13203 28.8651 -16.6078 -5.71908 30.6026 -57.0416 0.310217 8.73661 -0.0236974 8.84747 -0.226688 1.10632 1.26007 -29.3491 -18.4939 0.0 0.0 0.0 -1.73325 16.6732 1.89034 -14.3006 0.319983 2.16559 30.8608 19.9863 -4.09943 -5.70212 0.0 0.0 -0.0 0.0 -0.0 7.45216 22.3761 -5.24051 -33.5393 0.107689 -5.07327 39.3613 -2.22507 4.80787 -28.3319 0.0 0.0 0.0 0.0 0.0 
496.85 746.397 -557.767 159.206 -74.1524 157.838 -1.03887 0.510874 0.770021 -1.03866 0.460842 0.800966 -1.03181 0.266353 0.884856 -1.03268 0.402752 0.831691 -13.4901 7.40435 3.34604 -13.5594 12.039 5.45697 -0.0 0.0 -0.0 0.304191 24.4917 3.23308 -9.78202 -12.9135 70.1578 0.781365 -21.1596 0.145946 12.0001 0.265834 -1.50706 -0.734211 8.96915 -1.00778 -0.0 0.0 -0.0 8.7189 28.3176 -15.7583 -5.49191 31.8651 -55.9375 0.300369 8.46337 -0.0222248 8.28813 -0.217442 1.03547 1.41602 -28.9205 -19.2778 0.0 0.0 0.0 1.34603 16.2777 0.496637 -15.4098 0.32206 2.33575 30.447 19.5621 -4.04635 -5.38117 0.0 0.0 -0.0 0.0 -0.0 4.80106 19.5376 -3.87752 -35.0923 0.184416 -5.29915 39.3952 -3.1471 4.80767 -28.3231 0.0 0.0 0.0 0.0 0.0 
497.573 747.913 -554.549 155.087 -75.5528 153.576 -1.26824 0.516048 0.937027 -1.26787 0.45538 0.967962 -1.25957 0.218851 1.0471 -1.2609 0.381466 0.9994 -14.844 6.80762 3.80029 -14.8995 10.7525 5.8313 -0.0 0.0 -0.0 0.0192963 23.996 2.79855 -10.2521 -12.8953 69.8713 0.735628 -20.0222 0.12986 12.2535 0.268023 -1.53936 -0.89994 10.9346 -1.21457 -0.0 0.0 -0.0 8.38996 28.8212 -14.9742 -4.96675 32.9567 -54.8052 0.265445 7.49122 -0.0173777 7.73585 -0.207633 0.965606 1.30696 -29.2484 -18.7355 0.0 0.0 0.0 4.1812 15.5243 -0.502094 -16.5871 0.320661 2.51638 28.8004 19.1036 -3.85427 -6.9427 0.0 0.0 -0.0 0.0 -0.0 2.37213 17.4506 -3.20841 -32.1201 0.0429604 -4.86513 38.8358 0.0489503 4.77478 -28.6074 0.0 0.0 0.0 0.0 0.0 
